# xmcd
#
# Track frame offsets: 
#        150
#        24735
#        52020
#        76935
#        91250
#        111310
#        134043
#        150260
#        185283
#        203878
#        238828
#        269740
#        288715
#        310848
#
# Disc length: 4415 seconds
#
# Revision: 1
# Processed by: cddbd v1.5.2PL0 Copyright (c) Steve Scherf et al.
# Submitted via: ExactAudioCopy v0.99pb4
#
DISCID=cc113d0e
DTITLE=Gene Ammons - Fine and Mellow
DYEAR=1972
DGENRE=Jazz
TTITLE0=Lady Sings the Blues
TTITLE1=Play Me
TTITLE2=Ben
TTITLE3=Fly Me
TTITLE4=Fuzz
TTITLE5=Fine and Mellow
TTITLE6=Strange Fruit
TTITLE7=Big Bad Jug
TTITLE8=God Bless the Child
TTITLE9=Tin Shack out Back
TTITLE10=Lady Mama
TTITLE11=I Can't Help Myself
TTITLE12=Lucille
TTITLE13=Papa Was A Rolling Stone
EXTD=YEAR: 2003
EXTT0=
EXTT1=
EXTT2=
EXTT3=
EXTT4=
EXTT5=
EXTT6=
EXTT7=
EXTT8=
EXTT9=
EXTT10=
EXTT11=
EXTT12=
EXTT13=
PLAYORDER=
